# xmcd CD database file
#
# Track frame offsets:
#	150
#	23107
#	44289
#
# Disc length: 902 seconds
#
# Revision: 0
# Processed by: cddbd v1.5.2PL0 Copyright (c) Steve Scherf et al.
# Submitted via: CDex 1.70beta3
#
DISCID=1b038403
DTITLE=城南海 - ルナ・レガーロ ～月からの贈り物～
DYEAR=2010
DGENRE=Country
TTITLE0=ルナ・レガーロ ～月からの贈り物～
TTITLE1=リリー
TTITLE2=きみのために
EXTD=YEAR: 2010
EXTT0=
EXTT1=
EXTT2=
PLAYORDER=
